mtllib materials.mtl
v 0.05872181 -0.1102817 -0.2519051
v 0.205906 -0.106613 -0.1658468
v 0.2025039 0.07373655 -0.1677163
v 0.05531976 0.07006788 -0.2537746
v -0.0303252 -0.1103827 -0.09960482
v -0.03372732 0.06996691 -0.1014744
v 0.1134568 0.07363558 -0.01541615
v 0.1168589 -0.106714 -0.01354659
v 0.0356971 0.05159378 -0.06089547
v -0.03334817 0.04987264 -0.1012661
v -0.03108117 -0.07029748 -0.1000203
v 0.03796414 -0.06857646 -0.05964971
v -0.05515584 0.05149066 0.09449351
v -0.04288885 -0.03867948 0.09573933
v -0.1119341 -0.04040062 0.05536866
v -0.1242011 0.04976964 0.0541229
v 0.03300929 -0.06844842 -0.06828368
v 0.1020546 -0.0667274 -0.027913
v 0.1097898 0.05332053 -0.02915752
v 0.04074454 0.05159938 -0.06952816
v -0.04289123 -0.03855729 0.105738
v -0.0551559 0.05149066 0.09449345
v 0.01388934 0.05321169 0.1348641
v 0.02615407 -0.03683615 0.1461086
v -0.05364707 -0.02849078 0.09532261
v 0.01539817 -0.02676976 0.1356933
v 0.0135121 0.07320714 0.1346568
v -0.05553314 0.07148612 0.09428617
v -0.09402624 -0.02853656 0.1643843
v -0.1159123 0.1014403 0.1933479
v -0.04686704 0.1031613 0.2337185
v -0.02498099 -0.02681553 0.204755
v -0.05364701 -0.02849078 0.09532264
v -0.09402606 -0.02853656 0.1643844
v -0.09553489 0.05144489 0.1635553
v -0.05515584 0.05149066 0.09449348
v -0.1226923 -0.03021181 0.05495206
v -0.1242011 0.04976964 0.0541229
v -0.1645802 0.04972386 0.1231847
v -0.1630714 -0.03025758 0.1240138
v -0.05402425 -0.00849545 0.09511533
v -0.0944033 -0.008541226 0.1641771
v -0.05553308 0.071486 0.09428617
v -0.1230696 -0.01021647 0.05474475
v -0.1245784 0.06976497 0.05391559
v -0.1634486 -0.01026225 0.1238065
v -0.1159121 0.1014402 0.1933479
v -0.1849574 0.09971917 0.1529773
v -0.02509668 0.07018185 -0.0964281
v -0.1159497 0.07007873 0.05896083
v -0.1151953 0.03008807 0.05937538
v -0.02434227 0.03019118 -0.09601352
v 0.09573257 0.07319367 -0.02577946
v 0.09648702 0.03320301 -0.02536491
v 0.00563398 0.03309989 0.130024
v 0.004879534 0.07309055 0.1296094
v -0.1334887 -0.02265751 0.1362338
v -0.1001057 -0.1161705 0.08559695
v -0.09310952 -0.02261245 0.06717211
v -0.05555043 -0.02064753 0.1818044
v -0.0151712 -0.02060246 0.1127427
v -0.02216741 -0.1141605 0.1311673
v -0.05254659 -0.1742057 0.190229
v -0.1261328 -0.1760399 0.1472031
v 0.3828582 0.02140772 -0.742801
v 0.4029664 0.06099999 -0.7287123
v 0.07708785 0.04693878 -0.2240857
v 0.05697963 0.007346392 -0.2381744
v 0.437171 0.08302379 -0.7060099
v 0.1112923 0.06896257 -0.2013833
v 0.4763066 0.08157778 -0.680777
v 0.150428 0.06751645 -0.1761505
v 0.5098872 0.05704927 -0.6597748
v 0.1840085 0.04298806 -0.1551483
v 0.5289146 0.01601088 -0.6486307
v 0.2030361 0.001949668 -0.1440041
v 0.5282907 -0.03054142 -0.6503308
v 0.202412 -0.04460263 -0.1457043
v 0.5081825 -0.07013381 -0.6644196
v 0.1823038 -0.0841949 -0.1597931
v 0.473978 -0.09215748 -0.6871219
v 0.1480994 -0.1062187 -0.1824955
v 0.4348423 -0.09071147 -0.7123548
v 0.1089637 -0.1047727 -0.2077283
v 0.4012618 -0.06618297 -0.733357
v 0.07538313 -0.08024418 -0.2287305
v 0.3822342 -0.02514458 -0.7445011
v 0.05635568 -0.03920579 -0.2398746
vn 0.504739 0.0005723527 -0.8632719
vn -0.504739 -0.0005723527 0.8632719
vn 0.01885943 -0.9997684 0.01036391
vn -0.01885943 0.9997684 -0.01036391
vn -0.863066 -0.02151189 -0.5046329
vn 0.863066 0.02151189 0.5046329
vn 0.5047386 0.0005726591 -0.8632721
vn -0.5028939 -0.0564985 0.8624997
vn -0.01886059 0.9997686 -0.01036422
vn -0.06618019 -0.985663 0.1552064
vn 0.8630663 0.02151304 0.5046327
vn -0.8630663 -0.02151304 -0.5046327
vn 0.8897068 0.1270964 0.4384843
vn -0.8897069 -0.1270964 -0.4384843
vn 0.505086 -0.04148193 -0.8620716
vn -0.5050904 0.03886975 0.8621908
vn -0.05942933 -0.9878271 0.1437555
vn -0.01886092 0.9997684 -0.01036459
vn -0.8621923 0.05032953 -0.5040748
vn 0.8621923 -0.05032928 0.5040748
vn -0.9135815 -0.1705309 -0.3691722
vn 0.9135815 0.1705315 0.3691719
vn 0.5047395 0.0005725371 -0.8632716
vn -0.4814434 -0.2670891 0.8347909
vn 0.01886048 -0.9997684 0.01036432
vn 0.10838 0.9679335 -0.2266243
vn -0.8630657 -0.021513 -0.5046334
vn 0.8630657 0.021513 0.5046334
vn -0.8575044 -0.02994047 -0.5136046
vn 0.8575044 0.02994055 0.5136047
vn 0.8630664 0.02151303 0.5046322
vn -0.8630664 -0.02151303 -0.5046322
vn 0.0188604 -0.9997684 0.01036451
vn -0.0188604 0.9997684 -0.01036451
vn 0.5047383 0.0005723094 -0.8632722
vn -0.5047383 -0.0005723094 0.8632722
vn 0.8630663 0.02151303 0.5046324
vn -0.8630663 -0.02151303 -0.5046324
vn 0.0188604 -0.9997684 0.01036451
vn 0.1083798 0.9679335 -0.2266241
vn 0.5047385 0.0005723131 -0.8632721
vn -0.4738984 -0.3111705 0.8237677
vn 0.8576831 0.0316152 0.5132058
vn -0.8576831 -0.03161522 -0.5132059
vn -0.8630661 -0.02151284 -0.504633
vn 0.8630661 0.02151284 0.504633
vn -0.01886052 0.9997686 -0.01036394
vn 0.01886052 -0.9997686 0.01036394
vn 0.5047391 0.0005728807 -0.8632718
vn -0.5047391 -0.0005728807 0.8632718
vn -0.8627379 -0.03482916 -0.5044507
vn 0.8627378 0.03482836 0.5044509
vn -0.5051172 0.03742425 0.8622391
vn 0.4981147 -0.2032551 -0.8429527
vn -0.01949915 0.9997522 -0.01074817
vn 0.3527298 -0.740782 -0.5716853
vn -0.8904498 -0.07480738 -0.4488912
vn 0.8694991 0.04399969 0.4919713
vn -0.7208065 0.5265036 -0.4508131
vn -0.4084253 0.8808909 -0.2392078
vn 0.01339336 0.9992443 0.03649301
vn 0.431623 0.849851 0.3024155
vn 0.7341998 0.4727408 0.4873059
vn 0.8400482 -0.0310401 0.5416234
vn 0.7208065 -0.5265036 0.4508131
vn 0.4084252 -0.880891 0.2392078
vn -0.01339328 -0.9992443 -0.03649304
vn -0.4316229 -0.849851 -0.3024155
vn -0.7341997 -0.4727407 -0.487306
vn -0.8400483 0.03104017 -0.5416234
vn 0.5423465 0.0234016 -0.8398291
vn -0.5423465 -0.0234016 0.8398291
usemtl mat8
f 4//1 3//1 2//1 1//1
f 8//2 7//2 6//2 5//2
f 2//3 8//3 5//3 1//3
f 6//4 7//4 3//4 4//4
f 5//5 6//5 4//5 1//5
f 3//6 7//6 8//6 2//6
f 12//7 11//7 10//7 9//7
f 16//8 15//8 14//8 13//8
f 10//9 16//9 13//9 9//9
f 14//10 15//10 11//10 12//10
f 13//11 12//11 9//11
f 11//12 16//12 10//12
f 13//13 14//13 12//13
f 11//14 15//14 16//14
f 20//15 19//15 18//15 17//15
f 24//16 23//16 22//16 21//16
f 18//17 24//17 21//17 17//17
f 22//18 23//18 19//18 20//18
f 22//19 20//19 17//19
f 19//20 23//20 18//20
f 17//21 21//21 22//21
f 23//22 24//22 18//22
f 28//23 27//23 26//23 25//23
f 32//24 31//24 30//24 29//24
f 26//25 32//25 29//25 25//25
f 30//26 31//26 27//26 28//26
f 29//27 28//27 25//27
f 27//28 32//28 26//28
f 29//29 30//29 28//29
f 27//30 31//30 32//30
f 36//31 35//31 34//31 33//31
f 40//32 39//32 38//32 37//32
f 34//33 40//33 37//33 33//33
f 38//34 39//34 35//34 36//34
f 37//35 38//35 36//35 33//35
f 35//36 39//36 40//36 34//36
f 43//37 42//37 41//37
f 46//38 45//38 44//38
f 42//39 46//39 44//39 41//39
f 45//40 48//40 47//40 43//40
f 44//41 45//41 43//41 41//41
f 47//42 48//42 46//42 42//42
f 43//43 47//43 42//43
f 46//44 48//44 45//44
usemtl mat23
f 52//45 51//45 50//45 49//45
f 56//46 55//46 54//46 53//46
f 50//47 56//47 53//47 49//47
f 54//48 55//48 51//48 52//48
f 53//49 54//49 52//49 49//49
f 51//50 55//50 56//50 50//50
f 59//51 58//51 57//51
f 62//52 61//52 60//52
f 64//53 63//53 60//53 57//53
f 61//54 62//54 58//54 59//54
f 60//55 61//55 59//55 57//55
f 58//56 62//56 63//56 64//56
f 58//57 64//57 57//57
f 60//58 63//58 62//58
f 68//59 67//59 66//59 65//59
f 67//60 70//60 69//60 66//60
f 70//61 72//61 71//61 69//61
f 72//62 74//62 73//62 71//62
f 74//63 76//63 75//63 73//63
f 76//64 78//64 77//64 75//64
f 78//65 80//65 79//65 77//65
f 80//66 82//66 81//66 79//66
f 82//67 84//67 83//67 81//67
f 84//68 86//68 85//68 83//68
f 86//69 88//69 87//69 85//69
f 88//70 68//70 65//70 87//70
f 65//71 66//71 69//71 71//71 73//71 75//71 77//71 79//71 81//71 83//71 85//71 87//71
f 88//72 86//72 84//72 82//72 80//72 78//72 76//72 74//72 72//72 70//72 67//72 68//72
